HIERARCHY
ROOT joint_Root
{
	OFFSET 0.0 0.0 0.0
	CHANNELS 6 Xposition Yposition Zposition Zrotation Xrotation Yrotation 
	JOINT Hips
	{
		OFFSET -0.726466 93.3139 -2.00062
		CHANNELS 6 Xposition Yposition Zposition Zrotation Xrotation Yrotation 
		JOINT Spine
		{
			OFFSET 15.7357 0.0 0.0
			CHANNELS 6 Xposition Yposition Zposition Zrotation Xrotation Yrotation 
			JOINT Chest
			{
				OFFSET 8.98455 -0.406207 0.0
				CHANNELS 6 Xposition Yposition Zposition Zrotation Xrotation Yrotation 
				JOINT Neck
				{
					OFFSET 16.3773 0.0 0.0
					CHANNELS 6 Xposition Yposition Zposition Zrotation Xrotation Yrotation 
					JOINT Head
					{
						OFFSET 6.45672 0.0 0.0
						CHANNELS 6 Xposition Yposition Zposition Zrotation Xrotation Yrotation 
						End Site
						{
							OFFSET 0.0 0.0 0.0
						}
					}
				}
				JOINT Shoulder_L
				{
					OFFSET 12.9942 -0.242716 4.98039
					CHANNELS 6 Xposition Yposition Zposition Zrotation Xrotation Yrotation 
					JOINT UpperArm_L
					{
						OFFSET 5.34809 0.0 0.0
						CHANNELS 6 Xposition Yposition Zposition Zrotation Xrotation Yrotation 
						JOINT LowerArm_L
						{
							OFFSET 24.3286 1.87007e-05 0.0
							CHANNELS 6 Xposition Yposition Zposition Zrotation Xrotation Yrotation 
							JOINT Hand_L
							{
								OFFSET 22.2916 0.0 0.0
								CHANNELS 6 Xposition Yposition Zposition Zrotation Xrotation Yrotation 
								End Site
								{
									OFFSET 0.0 0.0 0.0
								}
							}
						}
					}
				}
				JOINT Shoulder_R
				{
					OFFSET 12.9945 -0.242716 -4.98039
					CHANNELS 6 Xposition Yposition Zposition Zrotation Xrotation Yrotation 
					JOINT UpperArm_R
					{
						OFFSET -5.34813 0.0 0.0
						CHANNELS 6 Xposition Yposition Zposition Zrotation Xrotation Yrotation 
						JOINT LowerArm_R
						{
							OFFSET -24.3289 0.000322201 0.0
							CHANNELS 6 Xposition Yposition Zposition Zrotation Xrotation Yrotation 
							JOINT Hand_R
							{
								OFFSET -22.2915 -0.000108084 0.0
								CHANNELS 6 Xposition Yposition Zposition Zrotation Xrotation Yrotation 
								End Site
								{
									OFFSET 0.0 0.0 0.0
								}
							}
						}
					}
				}
			}
		}
		JOINT UpperLeg_L
		{
			OFFSET -2.19248 -6.46944 0.0
			CHANNELS 6 Xposition Yposition Zposition Zrotation Xrotation Yrotation 
			JOINT LowerLeg_L
			{
				OFFSET 39.0811 0.0 -1.23785e-05
				CHANNELS 6 Xposition Yposition Zposition Zrotation Xrotation Yrotation 
				JOINT Foot_L
				{
					OFFSET 40.9854 0.0 -1.26872e-05
					CHANNELS 6 Xposition Yposition Zposition Zrotation Xrotation Yrotation 
					JOINT Toes_L
					{
						OFFSET 11.7543 0.0 0.0
						CHANNELS 6 Xposition Yposition Zposition Zrotation Xrotation Yrotation 
						End Site
						{
							OFFSET 0.0 0.0 0.0
						}
					}
				}
			}
		}
		JOINT UpperLeg_R
		{
			OFFSET -2.19251 6.46944 0.0
			CHANNELS 6 Xposition Yposition Zposition Zrotation Xrotation Yrotation 
			JOINT LowerLeg_R
			{
				OFFSET -39.0811 -0.00228153 -0.0401928
				CHANNELS 6 Xposition Yposition Zposition Zrotation Xrotation Yrotation 
				JOINT Foot_R
				{
					OFFSET -40.9854 0.0 0.0
					CHANNELS 6 Xposition Yposition Zposition Zrotation Xrotation Yrotation 
					JOINT Toes_R
					{
						OFFSET -11.7543 0.0 0.0
						CHANNELS 6 Xposition Yposition Zposition Zrotation Xrotation Yrotation 
						End Site
						{
							OFFSET 0.0 0.0 0.0
						}
					}
				}
			}
		}
	}
}
MOTION
Frames:	8
Frame Time:	0.0333333
0.000000 0.000000 0.000000 0.000000 0.000000 -0.000000 -0.525570 88.620200 517.148000 -86.815200 13.028800 179.113000 15.735700 0.000005 -0.000001 104.104000 80.472600 -104.952000 8.984550 -0.406207 -0.000000 10.774400 4.587750 -2.129530 16.377300 -0.000001 -0.000001 5.592340 0.848302 0.351418 6.456720 -0.000001 -0.000000 -0.483191 -1.626370 1.272620 12.994200 -0.242716 4.980390 -89.024900 -2.330030 -67.281600 5.348090 -0.000007 -0.000001 -63.871700 26.003300 -8.192680 24.328600 0.000019 0.000005 2.557620 5.260520 -25.981900 22.291600 -0.000001 0.000005 4.837510 5.491450 -6.193060 12.994500 -0.242716 -4.980390 89.279300 2.347770 -72.930300 -5.348130 -0.000001 -0.000004 -54.639700 28.761500 -31.207900 -24.328900 0.000322 -0.000009 3.450010 5.479700 -32.274900 -22.291500 -0.000108 -0.000004 3.466620 5.556350 -9.009850 -2.192480 -6.469440 -0.000000 -177.742000 -14.072700 -23.122200 39.081100 -0.000007 -0.000012 -0.312254 0.328180 43.576100 40.985400 -0.000006 -0.000013 -0.919945 -7.392250 -71.286100 11.754300 -0.000000 0.000003 -0.000271 -0.002387 -16.666800 -2.192510 6.469440 -0.000001 168.256000 16.786400 179.134000 -39.081100 -0.002282 -0.040193 0.194161 -0.183460 46.138800 -40.985400 0.000008 0.000006 5.237900 -18.659200 -51.170200 -11.754300 -0.000006 -0.000006 -0.015122 -0.138583 -22.227400
0.000000 0.000000 0.000000 0.000000 0.000000 -0.000000 -1.121020 89.047400 514.689000 -86.135700 11.845800 179.062000 15.735700 0.000005 -0.000001 100.398000 80.936300 -100.919000 8.984550 -0.406207 -0.000000 10.090500 3.240330 -1.327140 16.377300 -0.000001 -0.000001 5.728880 0.873720 0.291275 6.456720 -0.000001 -0.000000 -0.129875 -0.818589 1.410090 12.994200 -0.242716 4.980390 -88.942900 -2.618770 -68.007600 5.348090 -0.000007 -0.000001 -59.981100 26.939700 -12.443500 24.328600 0.000019 0.000005 1.986480 3.565040 -29.159100 22.291600 -0.000001 0.000005 5.184230 5.507090 -6.820380 12.994500 -0.242716 -4.980390 89.305200 2.213000 -72.565100 -5.348130 -0.000001 -0.000004 -56.921200 29.297800 -26.671100 -24.328900 0.000322 -0.000009 3.884620 6.523410 -30.874600 -22.291500 -0.000108 -0.000004 3.009800 5.557980 -9.088330 -2.192480 -6.469440 -0.000000 -177.476000 -13.925300 -20.613400 39.081100 -0.000007 -0.000012 -0.275063 0.304640 42.079800 40.985400 -0.000006 -0.000013 -0.310599 -6.589390 -72.350300 11.754300 -0.000000 0.000003 -0.000424 -0.003475 -16.705400 -2.192510 6.469440 -0.000001 169.801000 16.206200 176.507000 -39.081100 -0.002282 -0.040193 0.213534 -0.172721 50.602200 -40.985400 0.000008 0.000006 4.434550 -13.303500 -53.195000 -11.754300 -0.000006 -0.000006 -0.016556 -0.147406 -22.589800
0.000000 0.000000 0.000000 0.000000 0.000000 -0.000000 -1.595060 89.538500 512.402000 -85.446200 10.505400 179.248000 15.735700 0.000005 -0.000001 96.144400 81.266200 -96.319800 8.984550 -0.406207 -0.000000 9.607860 1.855860 -0.506369 16.377300 -0.000001 -0.000001 5.970590 0.743846 0.050536 6.456720 -0.000001 -0.000000 0.273752 0.152133 1.718140 12.994200 -0.242716 4.980390 -88.872500 -2.906600 -68.785300 5.348090 -0.000007 -0.000001 -55.913600 27.048000 -16.500600 24.328600 0.000019 0.000005 1.669500 2.619840 -32.533000 22.291600 -0.000001 0.000005 5.579370 5.528070 -7.708610 12.994500 -0.242716 -4.980390 89.263000 2.238850 -71.773700 -5.348130 -0.000001 -0.000004 -58.302600 29.654000 -22.652700 -24.328900 0.000322 -0.000009 3.805910 6.653950 -29.868000 -22.291500 -0.000108 -0.000004 1.942670 5.552320 -8.815920 -2.192480 -6.469440 -0.000000 -176.941000 -14.326500 -17.701300 39.081100 -0.000007 -0.000012 -0.236428 0.281680 40.008800 40.985400 -0.000006 -0.000013 0.465958 -5.050620 -72.984100 11.754300 -0.000000 0.000003 -0.000483 -0.003869 -16.719200 -2.192510 6.469440 -0.000001 171.355000 16.802000 173.690000 -39.081100 -0.002282 -0.040193 0.235076 -0.170006 53.748400 -40.985400 0.000008 0.000006 1.491770 -9.728470 -53.790000 -11.754300 -0.000006 -0.000006 -0.015550 -0.141254 -22.337100
0.000000 0.000000 0.000000 0.000000 0.000000 -0.000000 -1.970450 90.050900 510.291000 -84.901300 9.100580 179.480000 15.735700 0.000005 -0.000001 91.696500 81.502200 -91.581300 8.984550 -0.406207 -0.000000 9.221840 0.501879 0.189886 16.377300 -0.000001 -0.000001 6.299060 0.696047 -0.069245 6.456720 -0.000001 -0.000000 0.673647 0.991183 1.824830 12.994200 -0.242716 4.980390 -88.724500 -3.410800 -69.480400 5.348090 -0.000007 -0.000001 -51.997300 26.779700 -20.628000 24.328600 0.000019 0.000005 0.933349 1.315380 -35.369800 22.291600 -0.000001 0.000005 5.718960 5.548670 -8.640160 12.994500 -0.242716 -4.980390 89.261200 2.142420 -70.967500 -5.348130 -0.000001 -0.000004 -59.476600 29.597300 -18.596300 -24.328900 0.000322 -0.000009 3.775950 6.737810 -29.365400 -22.291500 -0.000108 -0.000004 1.190940 5.555870 -8.985650 -2.192480 -6.469440 -0.000000 -176.356000 -14.736000 -14.654500 39.081100 -0.000007 -0.000012 -0.190663 0.248832 37.460900 40.985400 -0.000006 -0.000013 1.184720 -3.300670 -73.261200 11.754300 -0.000000 0.000003 -0.000441 -0.003587 -16.709300 -2.192510 6.469440 -0.000001 172.823000 19.033300 170.859000 -39.081100 -0.002282 -0.040193 0.250957 -0.171526 55.301900 -40.985400 0.000008 0.000006 -0.138191 -7.479370 -54.562600 -11.754300 -0.000006 -0.000006 -0.015510 -0.141004 -22.326900
0.000000 0.000000 0.000000 0.000000 0.000000 -0.000000 -2.272960 90.506200 508.308000 -84.387700 7.807950 179.839000 15.735700 0.000005 -0.000001 87.792300 81.617900 -87.366400 8.984550 -0.406207 -0.000000 8.988690 -0.637887 0.901078 16.377300 -0.000001 -0.000001 6.621250 0.437256 -0.374424 6.456720 -0.000001 -0.000000 1.032510 1.786490 1.953190 12.994200 -0.242716 4.980390 -88.595300 -3.916920 -70.252300 5.348090 -0.000007 -0.000001 -48.345400 26.201100 -24.368200 24.328600 0.000019 0.000005 0.733523 0.932851 -38.178200 22.291600 -0.000001 0.000005 5.625550 5.552500 -8.824470 12.994500 -0.242716 -4.980390 89.350000 1.795350 -70.092300 -5.348130 -0.000001 -0.000004 -60.573000 29.299300 -14.373700 -24.328900 0.000322 -0.000009 4.015000 7.063060 -29.725700 -22.291500 -0.000108 -0.000004 1.676760 5.550580 -8.733420 -2.192480 -6.469440 -0.000000 -175.639000 -14.743500 -11.503700 39.081100 -0.000007 -0.000012 -0.171367 0.246511 34.806200 40.985400 -0.000006 -0.000013 1.581300 -2.071470 -73.403100 11.754300 -0.000000 0.000003 -0.000367 -0.003082 -16.691600 -2.192510 6.469440 -0.000001 174.389000 21.664400 168.214000 -39.081100 -0.002282 -0.040193 0.250592 -0.172169 55.162000 -40.985400 0.000008 0.000006 -1.775880 -6.290350 -55.310100 -11.754300 -0.000006 -0.000006 -0.015523 -0.141087 -22.330300
0.000000 0.000000 0.000000 0.000000 0.000000 -0.000000 -2.547230 90.902500 506.454000 -83.965500 6.635300 -179.861000 15.735700 0.000005 -0.000001 84.440200 81.645800 -83.749000 8.984550 -0.406207 -0.000000 8.876340 -1.603820 1.505750 16.377300 -0.000001 -0.000001 6.899320 0.183521 -0.600751 6.456720 -0.000001 -0.000000 1.336700 2.388550 1.938610 12.994200 -0.242716 4.980390 -88.494700 -4.349470 -70.888400 5.348090 -0.000007 -0.000001 -44.465700 25.615900 -28.268800 24.328600 0.000019 0.000005 1.065390 1.248020 -40.489200 22.291600 -0.000001 0.000005 5.603330 5.553240 -8.860030 12.994500 -0.242716 -4.980390 89.481100 1.369690 -69.247600 -5.348130 -0.000001 -0.000004 -61.549100 28.310300 -10.327900 -24.328900 0.000322 -0.000009 3.900900 6.664050 -30.445400 -22.291500 -0.000108 -0.000004 1.613840 5.547750 -8.600150 -2.192480 -6.469440 -0.000000 -175.020000 -14.573200 -8.514070 39.081100 -0.000007 -0.000012 -0.141082 0.225312 32.053400 40.985400 -0.000006 -0.000013 1.929650 -0.905970 -73.371300 11.754300 -0.000000 0.000003 -0.000347 -0.002936 -16.686400 -2.192510 6.469440 -0.000001 176.329000 23.987200 165.459000 -39.081100 -0.002282 -0.040193 0.227312 -0.165470 53.556300 -40.985400 0.000008 0.000006 -1.885150 -5.830860 -55.880300 -11.754300 -0.000006 -0.000006 -0.016146 -0.144916 -22.487500
0.000000 0.000000 0.000000 0.000000 0.000000 -0.000000 -2.796860 91.180000 504.717000 -83.657100 5.832700 -179.723000 15.735700 0.000005 -0.000001 81.593400 81.568400 -80.734400 8.984550 -0.406207 -0.000000 8.941050 -2.443820 1.907680 16.377300 -0.000001 -0.000001 6.947520 0.060664 -0.760135 6.456720 -0.000001 -0.000000 1.444700 2.957080 1.896730 12.994200 -0.242716 4.980390 -88.395200 -4.740330 -71.272300 5.348090 -0.000007 -0.000001 -40.369600 24.979800 -31.926900 24.328600 0.000019 0.000005 1.401870 1.513030 -42.826200 22.291600 -0.000001 0.000005 6.107290 5.553850 -8.888640 12.994500 -0.242716 -4.980390 89.616300 0.980746 -68.630800 -5.348130 -0.000001 -0.000004 -62.232300 27.393100 -6.999080 -24.328900 0.000322 -0.000009 3.894540 6.504210 -31.012400 -22.291500 -0.000108 -0.000004 1.944450 5.549770 -8.695170 -2.192480 -6.469440 -0.000000 -174.498000 -14.874300 -5.800770 39.081100 -0.000007 -0.000012 -0.112358 0.198867 29.466100 40.985400 -0.000006 -0.000013 2.303540 0.460770 -73.392100 11.754300 -0.000000 0.000003 -0.000266 -0.002351 -16.665500 -2.192510 6.469440 -0.000001 178.496000 25.321200 162.528000 -39.081100 -0.002282 -0.040193 0.186632 -0.150371 50.649500 -40.985400 0.000008 0.000006 -2.485620 -5.576100 -56.469800 -11.754300 -0.000006 -0.000006 -0.013935 -0.131006 -21.916600
0.000000 0.000000 0.000000 0.000000 0.000000 -0.000000 -2.991930 91.350400 503.038000 -83.359700 5.056950 -179.720000 15.735700 0.000005 -0.000001 78.906600 81.410000 -77.878800 8.984550 -0.406207 -0.000000 9.134440 -3.275620 2.316000 16.377300 -0.000001 -0.000001 6.890240 -0.086122 -0.943153 6.456720 -0.000001 -0.000000 1.397280 3.510510 1.806730 12.994200 -0.242716 4.980390 -88.302700 -5.098360 -71.558500 5.348090 -0.000007 -0.000001 -36.665100 23.952000 -34.932900 24.328600 0.000019 0.000005 1.468630 1.451070 -45.354900 22.291600 -0.000001 0.000005 6.514000 5.559120 -9.143480 12.994500 -0.242716 -4.980390 89.784700 0.533258 -68.009200 -5.348130 -0.000001 -0.000004 -62.554000 26.868700 -4.519820 -24.328900 0.000322 -0.000009 4.026440 6.594920 -31.510600 -22.291500 -0.000108 -0.000004 1.982950 5.548280 -8.624860 -2.192480 -6.469440 -0.000000 -174.048000 -15.111900 -3.486620 39.081100 -0.000007 -0.000012 -0.057861 0.112691 27.178200 40.985400 -0.000006 -0.000013 2.605020 1.655010 -73.471500 11.754300 -0.000000 0.000003 -0.000373 -0.003118 -16.692800 -2.192510 6.469440 -0.000001 -179.247000 25.773600 159.865000 -39.081100 -0.002282 -0.040193 0.139972 -0.130504 46.331000 -40.985400 0.000008 0.000006 -3.014220 -4.292530 -56.349200 -11.754300 -0.000006 -0.000006 -0.015009 -0.137873 -22.198300
